# xmcd
#
# Track frame offsets: 
#        182
#        19212
#        35677
#        51697
#        63640
#        80260
#        94635
#        108955
#        122820
#        137162
#        152615
#
# Disc length: 2245 seconds
#
# Revision: 0
# Processed by: cddbd v1.4PL0 Copyright (c) Steve Scherf et al.
# Submitted via: ExactAudioCopy v0.90a11
#
DISCID=9508c30b
DTITLE=Perfect Stranger - The Hits
DYEAR=1900
DGENRE=
TTITLE0=The Hits
TTITLE1=Runnin' Thru My Mind
TTITLE2=Miracles'
TTITLE3=A Little Bit More Of Your Love
TTITLE4=Absolute Crazy
TTITLE5=Take The Weekend Off
TTITLE6=My Heart Looks The Other Way
TTITLE7=Fire When Ready
TTITLE8=Ain't It Strange How Things Turn Around
TTITLE9=Ain't That Somethin'
TTITLE10=You Have The Right To Remain Silent
EXTD=
EXTT0=
EXTT1=
EXTT2=
EXTT3=
EXTT4=
EXTT5=
EXTT6=
EXTT7=
EXTT8=
EXTT9=
EXTT10=
PLAYORDER=
